<?xml version="1.0" encoding="UTF-8"?>
<svg id="Calque_1" data-name="Calque 1" xmlns="http://www.w3.org/2000/svg" xmlns:xlink="http://www.w3.org/1999/xlink" viewBox="0 0 58 57">
  <defs>
    <style>
      .cls-1 {
        fill: #fff;
      }

      .cls-2 {
        fill: #315498;
      }

      .cls-3 {
        fill: #05050b;
      }

      .cls-4 {
        clip-path: url(#clippath);
      }

      .cls-5 {
        fill: none;
      }

      .cls-6 {
        fill: #010101;
      }
    </style>
    <clipPath id="clippath">
      <rect class="cls-5" x="6.26" y="8.82" width="44.5" height="47.91"/>
    </clipPath>
  </defs>
  <g class="cls-4">
    <g>
      <path class="cls-6" d="m9.41,20.89l-.77.94s-.02-.02-.04-.04.27-.5.42-.75c.42-.67.86-1.32,1.26-2.01,1.57-2.63,3.55-4.85,6.21-6.4.67-.38,1.36-.79,2.05-1.13.85-.42,1.73-.79,2.63-1.11,1.21-.42,2.43-.75,3.64-1.13,2.17-.67,4.33-.46,6.5-.04,1.13.21,2.26.5,3.39.82.53.19,1.04.42,1.53.69.63.33,1.26.73,1.92,1.02,1.55.71,2.98,1.64,4.25,2.76,1.55,1.32,2.99,2.74,4.16,4.41s2.18,3.35,2.78,5.29c.5,1.51.82,3.07.98,4.66.1,1.26.13,2.55.23,3.81s.15,2.01.21,3.01-.31,2.43-.82,3.55c-.31.69-.73,1.34-1.11,2.03s-.67,1.21-1.03,1.82-.61.88-.9,1.32c-.12.2-.23.4-.33.61-.63,1.11-1.25,2.28-2.3,3.03-1.71,1.25-3.39,2.51-5.31,3.41-.52.25-1.05.46-1.55.73-.1.04-.15.21-.15.34s-.02.84-.04,1.26c-.02.23-.09.45-.19.65-.73,1.49-1.82,2.22-3.55,2.28-.73.02-1.46.02-2.15-.25-1.59-.59-2.55-1.63-2.63-3.39-.02-.36-.17-.48-.71-.46s-.75.04-1.11.02c-2.25-.15-4.45-.77-6.46-1.8-.63-.31-1.3-.56-1.97-.82s-.73.08-1.02.34c-.33.35-.68.67-1.05.98-1.13.84-2.47.69-3.39-.4-.63-.73-1.01-1.64-1.07-2.61-.06-.76.07-1.51.38-2.2l-.56-.38c-1.82-1.4-3.09-3.2-3.97-5.31-.4-.99-.67-2.04-.79-3.1-.06-.54-.27-1.07-.34-1.63-.19-1.49-.46-2.99-.36-4.52.06-.73-.02-1.48.08-2.2.12-.77.28-1.53.5-2.28.14-.62.33-1.23.57-1.82.32-.68.68-1.33,1.07-1.97.36-.63.8-1.23.98-1.95l-.08-.06m24.88,27.22h-.21c-.56-.23-1.09-.56-1.72-.33-.31.11-.65.15-.96.25s-.19.19-.33.21c-.44.13-.63.52-.82.84-.36.71-.65,1.46-.96,2.18-.02.07-.03.15-.02.23.23,0,.46-.06.63.02.5.23,1.02.23,1.55.23.35,0,.69,0,1.03-.04.44-.08.86-.33,1.32-.08.06.04.15.02.23.02l1.94-.25c.46-.06.63-.33.44-.63-.15-.21-.29-.43-.42-.65-.17-.34-.61-.54-.59-1.02.48.63,1,1.23,1.44,1.88.15.25.31.17.46.13s.5-.21.84-.36c-.1-.65-.13-1.36-.29-2.03s-.44-1.34-.67-2.03c-.19.11-.34.15-.42.25-.3.39-.71.7-1.17.88-.08.04-.21.06-.27,0-.07-.06-.11-.15-.1-.25.07-.21.19-.41.34-.57.33-.23.15-.48.1-.69s-.31-.1-.46-.08-.38.08-.5-.15-.29-.38.02-.59.02-.1.04-.13c-.11.01-.21.07-.29.15-.38.4-.4.4-.71.13h-.38c.04-.11.06-.29.13-.34s.25-.5.25-.8c-.19.18-.37.38-.54.59-.13.19-.25.33-.4.11s.1-.33.13-.48,0-.21.06-.27c.34-.42.71-.82,1.05-1.23.13-.16.38-.19.54-.05,0,0,.01,0,.02.01.17.19.34.15.54.15s.25.1.27.17c.13.48.38.92.73,1.28.04.04.1.11.08.15s.1.44.21.63.15.1.25.15.08-.21.04-.29c-.27-.61-.57-1.21-.8-1.84s-.46-1.25-.67-1.88c-.08-.25-.21-.31-.48-.21-.28.12-.58.2-.88.23-.69.06-1.38.06-2.07.08-.09,0-.17-.02-.25-.06-.06-.05-.1-.12-.11-.19l.15-.1c.38-.04.75-.06,1.13-.06,1.02.06,1.97-.23,2.89-.63l.29-.11q-.36-.34-.15-.63c.06-.11.11-.23.15-.34l-.1-.06c-.21.23-.44.44-.63.67s-.48.5-.94.17c-.14-.1-.32-.08-.44.04-.23.17-.34.13-.44-.11l-.29-.04c0-.09,0-.18.04-.27.08-.15.21-.29.29-.44s.02-.17.02-.25h-.31c-.1.02-.15.1-.23.15l-.11-.08c.27-.57.52-1.15.79-1.76l-.38-.15c-.15-.06-.29-.21-.13-.34s.54-.88,1.17-.59c.04.02.11-.06.17-.08l.34-.04c-.03.12-.07.25-.11.36-.1.17-.25.31-.34.46s-.04.27.19.27.21.06.31.11.1.08.13.06.23.11.11.31-.25.31-.04.52c.13-.1.27-.18.42-.25.08-.04.23-.04.27.02.18.22.34.45.48.69l.92-.17c.06,0,.12.02.17.06.23.27.44.11.63-.04.57-.48,1.32-.79,1.63-1.53h.02c.29-.52.59-1.03.86-1.55.06-.1,0-.29-.02-.4-.05-.13-.1-.26-.17-.38l-.34-.08c0-.19.03-.39.08-.57l-.77.59c-.06.04-.17,0-.27,0,.02-.08.02-.17.02-.25,0-.04.04-.08.04-.11l-.04-.06-.57.42c-.25-.4.13-.5.27-.69s.4-.34.59-.54l-.08-.1c-.61.21-1,.71-1.46,1.15l-.23-.19.96-1-.06-.11c-.12.02-.24.06-.34.11-.25.25-.48.52-.73.75-.09.09-.19.16-.31.21-.01-.04-.04-.07-.08-.1.04-.11.09-.22.15-.33.19-.21.4-.44.61-.63s.21-.27.02-.48l-.84.8c-.09.06-.19.1-.29.13l-.06-.11,1.32-1.48s-.06-.06-.1-.1c-.08.03-.15.08-.21.13l-1,1.02c-.06.06-.17.06-.25.08-.01-.08,0-.17.02-.25.04-.08.13-.13.21-.23-.4-.15-.27-.33-.08-.52s.42-.44.61-.67l-.08-.1c-.21.21-.4.42-.63.61-.12.06-.25.1-.38.11.02-.12.06-.24.11-.34l.8-.94-.06-.13c-.25.31-.52.36-.8.15,0-.02-.02-.08,0-.08l1.34-1.26s.1,0,.13.04c.02.04.02.09,0,.13l-.25.33.33.36c.34-.15.57-.56,1-.56l.06.08-.63.84c.48-.1.77-.5,1.28-.44l-.57.61.4.13-.19.38c.21-.1.4-.21.61-.29s.19,0,.29,0c-.03.1-.07.2-.11.29l-.73.8c.37-.11.73-.25,1.07-.42.13-.02.27-.02.4,0l-.82.71c.34.13.61-.34.9,0l-.34.4c.42-.04.46-.08.48-.38s.02-.31.02-.46c.06-1.48-.21-2.93-.34-4.39-.13-1.11-.43-2.19-.9-3.2-.25-.57-.5-1.25-1.25-1.44-.04,0-.08-.06-.1-.1s-.27-.36-.5-.08-.15.04-.23.06-.04-.17,0-.21.08-.33-.13-.44-.34-.04-.42.17-.06.15-.11.17l-.36.08c-.01-.1,0-.21.02-.31.02-.1.1-.17.11-.27s.02-.11.02-.17c-.07,0-.14.03-.21.06-.08.04-.11.11-.19.17,0-.1,0-.2,0-.31.06-.23-.13-.33-.25-.23s-.5.25-.75,0h-.13c-.23.04-.27-.06-.15-.27.03-.09.05-.18.04-.27-.1.03-.2.08-.29.15-.15.12-.29.26-.42.4-.06-.23-.08-.38-.11-.54-.02-.11-.05-.22-.1-.33-.14.05-.28.11-.42.17-.06.02-.08.11-.11.17s-.29.29-.54.1l.4-.82c-.09-.03-.19,0-.27.06-.1.16-.22.31-.34.44-.09.06-.2.09-.31.1,0-.1,0-.2.04-.29.1-.19.23-.36.34-.56-.65.21-.67.19-.69-.25l-.9.48c-.23.11-.36.04-.33-.21.05-.22.12-.44.21-.65-.15-.11-.29-.15-.38.06-.08.14-.14.28-.19.42l-.15-.06c.04-.15.06-.31.1-.5-.56-.11-1.09-.04-1.65.04l-.84.15c-.44.1-.9.13-1.34.27s-1.07.34-1.59.54l-.67.33-.88.36c.08-.19.1-.27.13-.34l-.08-.06-.59.63-.27-.52-.11.1c.05.1.09.2.11.31,0,.12,0,.24,0,.36-.56-.61-.79-.61-1.19-.15l.06.08c.19.38.19.4-.23.44l-.33-.04-.75-.29c.06.1.1.13.1.19,0,.13,0,.27,0,.4l-.34-.08c-.1-.03-.19-.07-.27-.13l-.06.08c.13.21.29.42.4.63.03.11.03.22.02.33l-.13.04-.65-.94-.56.29c.17.4-.11.38-.4.36.13.4.69.61.4,1.17-.25-.27-.44-.5-.67-.71s-.21-.04-.31-.02c-.05.06-.08.13-.08.21.19.29-.04.31-.21.36l-.38.11.31,1.02s-.07.04-.1.08l-.52-.27c-.08.11-.23.25-.21.36.08.46-.15.46-.48.33-.03.1-.06.2-.08.31-.31.06-.48.31-.48.73-.02.71-.02,1.42-.02,2.13,0,.23.04.48.06.71l.29,1.95c.11.75.23,1.48.36,2.22.03.11.07.22.11.33l.71-.9h.08c.04.19.06.4.1.65.07-.23.17-.45.29-.65.12-.12.28-.18.44-.19.04,0,.13.19.15.31.04.19.07.38.08.57h.08l.23-.9h.1l.23.44.5.34.29-.25.33-.1c.05.11.09.23.11.34.02.13.02.26.02.38,0,.31-.04.61.25.84v.04c-.1.38.06.8-.19,1.17-.1.14-.16.31-.17.48-.04.48-.52.36-.73.59-.04.04-.1.06-.15.08h-.08l-.63-.46c.06-.52.1-.56.61-.69.08-.01.16-.04.23-.1.06-.06.11-.19.08-.23-.22-.23-.45-.44-.69-.63-.04-.04-.11-.04-.15,0-.27.17-.36-.04-.46-.21l-.11-.25c-.05.11-.09.23-.11.34-.04.06-.1.11-.17.13l-.46-.06-.13-.19-.1.04c0,.23-.15.42.02.67.09.14.15.3.19.46.27.73.44,1.48,1,2.09s1.49,1.61,2.43,2.18c1.25.77,2.68.96,4.1,1.15.12,0,.25-.01.36-.06,0,.06.02.1.02.15l-1.17.21c0,.06.02.11.02.17.57-.06,1.13-.1,1.69-.17.23-.02.17-.19.13-.36-.14-.38-.24-.78-.29-1.19-.04-.77.04-1.51.06-2.28,0-.13-.08-.38-.13-.38-.42-.06-.63-.29-.61-.75-.18.13-.35.27-.52.42-.06.04-.19.06-.23.02s-.06-.15-.08-.23.04-.1.06-.15c-.15.05-.29.12-.42.21-.11.04-.25.1-.33.06s-.15-.25-.04-.38.21-.27.31-.4l-.04-.06-.54.23-.06-.1c.23-.38.44-.77.67-1.21-.5.11-.57.52-.8.8s-.13.08-.19.13-.08-.21-.04-.29l.36-.57c.06-.08.11-.21.08-.23s0-.46.11-.65l.4-.56c-.31-.23-.31-.4,0-.61.14-.1.29-.18.46-.23.1,0,.19.05.27.11-.08.25.08.52-.15.75-.16.21-.29.43-.4.67l.1.06.5-.42c.08-.05.17-.08.27-.1.03.1.04.2.04.31-.08.19-.17.38-.31.65.09-.04.17-.09.25-.15.1-.08.17-.27.34-.1s.06.25-.08.38c-.09.13-.17.27-.23.42.4-.1.42-.63.84-.56v-.57c0-.59.06-1.17-.04-1.74s-.23-1.48-.69-2.11c-.21-.29-.4-.57-.63-.84-.18-.23-.4-.42-.65-.57-.67-.36-1.34-.27-2.05.08s-1.23.52-1.95.29-1.25-.77-1.11-1.74c.02-.14.05-.28.1-.42.23-.5.77-.54,1.19-.79.08-.06.27.04.4.08h.15c.23-.21.46-.17.71-.04s.52.23.75.38c.54.33,1.13.59,1.55,1.02.74.75,1.4,1.56,1.99,2.43.33.57.54,1.2.63,1.86.13.71.11,1.46.15,2.18l.11,2.2c.02.54.02,1.09.04,1.63.04.86.08,1.71.13,2.57-.01.18,0,.36.06.54.21.59.65.98,1.11,1.34s1.11.36,1.69.34c.5-.02.96-.25,1.28-.63.5-.54.69-1.19.77-1.88s.11-1.94.13-2.91-.08-1.53-.04-2.3c.02-.36-.04-.61-.34-.8s-.42.44-.82.33l.82-.9-.1-.08c-.17.14-.35.28-.54.4-.14.06-.28.11-.42.15.06-.13.13-.26.21-.38l.52-.67-.11-.1-.48.48c-.06.06-.17.06-.25.08-.02-.08,0-.17.04-.25.09-.15.19-.29.31-.42l-.06-.08c-.08.04-.19.06-.25.13s-.54.46-.8.67-.17.04-.25.06-.02-.15-.02-.23.04-.25-.02-.33c-.13-.24-.27-.47-.42-.69.03-.22.08-.44.15-.65.24-.46.58-.87,1-1.19l.36.27-.27.34c.44-.1.54-.06.71.27l.1.11c.19.13.13.23-.04.38s-.59.57-.88.86l.06.06c.38-.27.77-.54,1.17-.79.06-.04.17-.02.25-.02-.01.08-.03.16-.06.23-.06.08-.12.16-.19.23.27.02.4-.04.44-.29.08-.57.21-1.13.27-1.69.1-.98.13-1.94.21-2.91,0-.05,0-.11-.04-.15-.19-.52.04-.96.27-1.36.25-.4.53-.77.84-1.13.21-.27.4-.56.79-.65.3-.07.61-.15.9-.25.45-.13.92-.12,1.36.04.2.08.42.15.63.19.47.07.82.47.84.94l.06.56c.04.29-.27.84-.54,1s-1.07.17-1.63.02c-.21-.06-.43-.11-.65-.13-.27-.04-.56-.04-.84-.06-.79-.08-1.25.04-1.46.98-.15.65-.24,1.31-.27,1.97-.02,1.05,0,2.09.08,3.12.06.57.07,1.14.02,1.71-.14.98-.2,1.96-.17,2.95,0,1.02-.04,2.04-.15,3.05-.03.68-.28,1.34-.73,1.86-.09.09-.19.17-.31.23-.58.36-1.22.58-1.9.65-.31.06-.64.04-.94-.08-.69-.34-1.32-.82-1.69-1.53-.15.08-.29.21-.42.23-.5.04-1.02.02-1.51.04-.13.02-.26.09-.34.19-.1.1-.1.23-.15.36.44.1.29.31.17.46.11.11.22.21.34.31.08.04.16.06.25.06.13,0,.26-.03.38-.06,0,.11-.02.25-.02.38s-.02.08-.06.19l1.05-.23c.13,0,.26,0,.38.04-.06.11-.08.31-.17.36s-.59.31-.9.46c-.08.02-.17.01-.25-.02-.27-.19-.44-.1-.61.17s-.15.06-.25.08-.08-.17-.06-.23c.05-.14.13-.26.21-.38l-.08-.06c-.1.13-.22.25-.34.36-.13.15-.29.27-.44,0l.42-.61c-.34.08-.6.36-.65.71-.29,1.07-.57,2.15-.84,3.22-.06.3-.1.6-.11.9l.56-.04c.17,0,.4-.19.52.08s-.17.31-.29.46c-.05.1-.07.21-.08.33.11.02.25.1.33.06s.46-.15.57.15l.11.11q.38.25.02.54l-.08.1c.54.1.65.31.38.65q-.56-.21-.82.08l4.2.79c.25-.38.33-.69.04-1-.02-.02.04-.11.08-.19.05-.14-.02-.29-.15-.35-.02,0-.05-.02-.08-.02-.09,0-.18,0-.27-.04.04-.08.02-.19.08-.25.42-.44.86-.84,1.3-1.26s.31-.34.44-.5l-.1-.11c-.23.15-.46.32-.67.5-.34.36-.67.75-1,1.11-.04.06-.09.1-.15.11-.11-.03-.21-.07-.31-.11.08-.15.02-.15-.11-.15s-.13-.08-.23-.11l.48-.65c-.52.34-.56.33-.63-.13l.75-.57c.18-.14.35-.28.52-.44l-.11-.11c-.38.36-.77.75-1.13,1.13l-.56.46c-.11.11-.25.19-.36.06s.04-.19.1-.29.1-.06.19-.11l-.52-.36.06-.69-.4.13-.04-.06c.05-.1.1-.19.17-.27.33-.29.54-.67,1-.84s.79-.52,1.15-.79c.38.15.06.36.08.5l.84.36s-.02.04-.02.08l.34-.13c.23.27.44.54.67.79l.27.21c.19.11.29.25.13.46s-.17.25-.04.4.04.11,0,.15-.29.52-.42.77c-.05.06-.09.12-.13.19-.14.34-.24.7-.29,1.07-.02.31-.19.61-.31.9.2-.01.4,0,.59.02.23.02.29-.08.33-.27s.17-.94.36-1.36c.33-.73.75-1.44,1.15-2.15.06-.08.14-.16.23-.21l.69-.48c.07-.06.15-.1.23-.13.56-.08,1.11-.27,1.69-.15s.92.1,1.19.56m-11.25-5.62c-.67-.31-1.34-.57-1.97-.94-1.07-.59-1.95-1.4-2.84-2.24-.38-.36-.8-.73-1.03-1.19s-.9-1.4-1.03-2.28-.48-2.01-.69-3.01c-.15-.68-.27-1.36-.34-2.05-.06-.69-.02-1.42-.1-2.11-.08-.75.03-1.51.33-2.2.15-.29.09-.65-.13-.88-.32-.39-.62-.8-.9-1.23-.46-.73-.75-1.56-.86-2.41-.15-.86.15-1.67.34-2.49.08-.33.31-.65.11-1.02s.08-.33.23-.27.29-.08.34-.23.17-.36.21-.34.19-.13.29-.19.33-.29.52-.42.46-.29.67-.42c.14-.07.3-.13.46-.15.4-.13.82-.36,1.28.02-.34,0-.34.15-.21.36l.56.9c.07.09.15.18.23.27-.03-.24-.09-.47-.17-.69l-.23-.65c-.02-.05-.05-.1-.08-.15.06-.02.11-.08.17-.06l.56.1c0-.12.03-.24.08-.34.05-.1.14-.18.25-.21.06,0,.15.13.21.21s.38.71.65.94c.8.67,1.63,1.26,2.26,2.11l.06.04c.5.42.79,1,1.03,1.59h.29c.69-.19,1.4-.34,2.09-.59,1.3-.52,2.68-.65,4.06-.77.27-.02.54.04.48-.38,0-.06.02-.11.06-.15.25-.5.57-1,.75-1.51s.84-1.26,1.42-1.72,1.65-1.19,2.66-1.42c.66-.18,1.34-.24,2.01-.19.5.04.98.36,1.4.65s.5.48.77.77l.59-.29.06.08c-.07.19-.16.38-.27.56-.13.21-.02.38.11.52s.23,0,.34-.02l.29-.06c-.08.15-.13.23-.17.33s-.36.46.02.69c.06.02.04.19.02.29s-.31.52.06.75c.04.08.04.17.02.25-.06.46-.38.88-.21,1.38l-.04.08c-.31.79-.63,1.55-.94,2.32-.1.27-.21.52-.33.82.36.24.62.6.75,1.02.23.65.56,1.26.77,1.92.25.72.45,1.44.61,2.18.11.61.18,1.24.19,1.86,0,.86-.06,1.71-.1,2.57s-.06,1.26-.06,1.9.11.8-.23,1.11c-.08.82-.57,1.48-1.03,2.11-.34.47-.72.92-1.11,1.34-.28.29-.59.56-.92.79-.57.34-1.19.61-1.74.96-.19.11-.44.38-.42.52.1.45.26.89.46,1.3.29.67.63,1.3.92,1.97s.42,1.21.67,1.8c.51,1.16.85,2.38,1,3.64.02.15.06.29.1.5.2-.07.39-.16.57-.27.8-.56,1.61-1.11,2.38-1.72s1.17-1.03,1.74-1.55c.28-.23.55-.47.8-.73.56-.61,1.09-1.26,1.65-1.9,1.12-1.23,1.99-2.66,2.59-4.22.33-.84.54-1.72.79-2.59.13-.37.23-.75.29-1.13.1-1,.11-1.99.21-2.99.12-1.29.09-2.59-.1-3.87-.17-1.34-.5-2.68-.79-4.01-.07-.4-.16-.8-.29-1.19-.25-.67-.52-1.34-.79-2.01s-.34-.82-.54-1.23-.36-.57-.52-.86c-.34-.59-.59-1.26-1-1.8-.53-.62-1.09-1.21-1.69-1.76-.48-.48-1-.92-1.48-1.4-.19-.19-.34-.44-.54-.63-.23-.24-.48-.46-.75-.65-.19-.17-.44-.24-.69-.19-.31.07-.63-.1-.75-.4l.52.11s.02-.06.02-.08l-.11-.1-2.03-1.15c-.38-.23-.77-.46-1.17-.67l-.92-.56-.19-.08c-.19.25-.38.06-.56,0s-.34-.13-.54-.17c-.79-.17-1.59-.31-2.4-.52s-1.57-.44-2.36-.67l-.59-.1.29-.23c-.7-.15-1.42-.14-2.11.06-.88.27-1.8.48-2.68.73l-.19.08c1.28-.02,2.47-.48,3.72-.57-.21.12-.43.23-.65.33h-.1l-.8.19-.65.19c-.54.19-1.09.08-1.65.25-1.02.33-2.09.52-3.12.77-.3.05-.59.13-.88.23-.59.27-1.19.57-1.76.86l-2.18,1.07c-.29.15-.54.52-.82.21-.05.14-.12.28-.21.4-.11.1-.23.19-.36.25-.13.08-.31.08-.4.17s-.46.56-.71.82c-.25.27-.46.48-.67.73s-.17.29-.27.4c-.36.44-.8.79-1.07,1.3s-.69,1.25-1.05,1.86l-.77,1.3c-.29.43-.54.87-.75,1.34-.27.65-.46,1.34-.67,2.03s-.27.84-.38,1.26c-.14.38-.25.77-.34,1.17-.13.48-.21.98-.31,1.48-.1.32-.18.65-.25.98-.08.67-.11,1.36-.17,2.03-.08.46-.13.92-.13,1.38.02.55.07,1.1.15,1.65.11.73.19,1.48.34,2.18.36,1.53.71,3.05,1.36,4.5.31.69.61,1.36,1.21,1.88.24.23.46.49.65.77l1.53,1.84c.26-.15.5-.32.73-.52.33-.31.74-.51,1.19-.59l1.67-.29c.67-.11,1.28-.17,1.95.17s1.46,1.11,2.01,1.84.5.98.73,1.49c.08.21.15.42.21.63.44-2.01,1.34-3.85,1.95-5.75m-5.33,7.07c.19-.02.39-.02.57.02.8.19,1.48.65,2.17,1.07l.98.59.1-.08c-.08-.15-.15-.44-.25-.46s-.29-.31-.31-.54.06-.56.04-.82c-.06-.71-.34-1.36-.54-2.05s-.79-1.28-1.25-1.86c-.06-.04-.14-.07-.21-.08.09.17.2.34.31.5.27.27.25.52.02.8s-.13.61.31.65.36.23.21.44c-.12.15-.25.29-.38.42l-1.32-.75-.1-.15.98-.79s-.04-.07-.08-.1l-.67.42h-.23c0-.1-.02-.21.02-.27s.17-.13.25-.21c.09-.09.18-.18.25-.29l-.08-.08-.25.15c-.11.11-.22.21-.34.31-.1.04-.21,0-.33.02.02-.11.05-.22.1-.33.09-.09.19-.17.31-.23l.59-.52-.08-.1c-.12.13-.25.24-.4.33-.16.04-.32.04-.48.02.04-.12.09-.23.15-.33l.54-.61c-.06-.07-.14-.12-.23-.15-.53-.16-1.09-.19-1.63-.1l-2.24.34c-.06.02-.11.11-.23.21.4.13.75.15,1.05.34.56.32,1.05.76,1.42,1.28.57.9,1.13,1.84,1.26,2.93m-9.74-10.94l-.13.06c.34,1.26.56,2.61,1.34,3.7s1.44,2.28,2.66,2.95c-.48-.65-1-1.28-1.48-1.92s-1.03-1.17-1.36-1.84-.57-1.63-.86-2.45l-.17-.5m-.29-13.44h-.11c-.1.22-.19.45-.25.69-.15.59-.29,1.17-.42,1.78-.14.52-.25,1.05-.33,1.59,0,.51,0,1.01.06,1.51v2.11c0,.1.03.19.06.29h.1c.02-.15.04-.29.04-.44,0-.33-.06-.65-.04-.98.04-.9.11-1.82.17-2.72.02-.34.04-.71.08-1.05s.17-.42.19-.65c.08-.57.11-1.13.38-1.67.05-.15.07-.3.08-.46m30.44-8.8l.1.08c.26-.22.46-.5.61-.8.02-.06-.06-.17-.11-.25-.16-.22-.34-.41-.54-.59-.12-.04-.25-.02-.34.06-.27.33-.52.69-.79,1.05l-.46.56.08.06,1.51-1.32.04.17-.4.67.06.06.46-.31s.08.06.1.1-.19.33-.31.48m-.79-1.99c-.88-.29-1.61.27-1.49,1.15.38-.1.48-.63,1.02-.61l-.23.33-.21.36c.47-.25.81-.7.92-1.23m-23.09.27l-.1-.08-.17.15-.88.82c-.25.21-.47.45-.67.71-.34.54-.65,1.09-.96,1.65-.06.12-.11.25-.15.38.5-.61.9-1.28,1.38-1.9s1.03-1.15,1.55-1.74m3.37,4.18c0,.33,1.72,2.57,2.11,2.82l.21-.15c-.77-.9-1.51-1.74-2.32-2.66m-10.25,9.7h.08c.33-1.26.67-2.55,1.03-3.91-.11.1-.17.13-.19.17s-.19.5-.27.75c-.12.29-.21.59-.29.9-.15.61-.27,1.25-.38,1.88-.01.07,0,.14.02.21m24.67-18.69c1.11.52,2.36.57,3.51.96-1.05-.77-2.32-.73-3.51-.96m7.7,7.13c-.44.02-1.44,1.15-1.46,1.63.67-.34,1.2-.92,1.46-1.63m-2.09,2.93c-.48.19-1.55,1.53-1.53,1.86.25,0,1.17-1.11,1.53-1.86m-18.46-2.8c.04.88.67,1.38,1.19,1.94-.38-.65-.67-1.36-1.19-1.94m22.81,32.22c-.88.08-1.46.79-2.2,1.13.77-.31,1.59-.5,2.2-1.13M18.87,11.63c.84-.19,1.69-.42,2.4-1.03-.94.08-1.61.67-2.4,1.03m17.59,4.37l-.11-.08c-.59.61-.94,1.4-1.38,2.09l.15.11,1.34-2.13m-14.16,5l.08-.1-1.38-2.36-.1.04c.02.06.02.13.06.17l1.03,2.03c.03.06.07.11.11.15.06.03.13.05.19.06m-8.28,1.9l-.08.06c.38.86.8,1.72,1.46,2.43l.11-.06-1.49-2.43m17.61-4.25l.11.08,1.61-2.8-.1-.06c-.75.8-.98,1.92-1.63,2.78m13.34,27.62l-.06-.08-1.4,1.38c.75-.17,1.17-.67,1.46-1.3M14.77,22.04l.11-.06c-.23-.59-.65-1.07-.96-1.67-.15.25-.15.38,0,.57s.57.77.84,1.15m20.12-6.13l.08.06.31-.4.57-.79c.04-.06,0-.17-.02-.25-.1.02-.2.07-.29.13-.08.12-.14.24-.19.36l-.46.88m-19.32,4.75l.15-.11c-.38-.57-.79-1.13-1.19-1.69l-.15.11,1.19,1.69m18.42-4.77l.08.06.33-.46c.08-.1.15-.27.25-.27.44.02.4-.36.54-.61-.52.33-.98.69-1.19,1.28m.73,3.35c.77-.56,1.02-.9,1.02-1.4l-1.02,1.4m14.34,5.37c-.21-.82-.38-1.65-.82-2.38h-.08c.29.79.59,1.57.9,2.36m-10.79-7.49s.07.04.1.08l.79-.92s-.02-.15-.02-.23-.17.04-.19.08l-.67,1m.21,2.41c.63-.25.94-.69.75-1.05l-.75,1.05m.61,12.57c-.65.19-.88.4-.92.88l.92-.88M18.55,12.32l-.06-.1c-.42.04-1.09.36-1.21.67l1.26-.57m18.4,5.33l.08.04.84-1.21-.08-.06c-.4.32-.69.74-.84,1.23m1.32,3.81c-.5.17-.94.75-.77,1.03.25-.33.5-.65.77-1.03m-4.04-6.34l-.08-.1-1.21.69c.46.23.56-.56.98-.19l.31-.4m-11.14-4.83c.44.13,1.15-.06,1.42-.36l-1.42.36m8.2,7.88l-.08-.06c-.1.15-.19.29-.27.44s-.13.36-.27.48-.23.21-.17.36l.13.06c.21-.44.44-.86.65-1.28m13.9,27.71c.44-.29.86-.59.98-1.17l-.98,1.17m4.71-7.34c.13-.48.25-.84.36-1.23-.33.31-.47.78-.36,1.23M17.23,19.43c.21.36.4.73.59,1.11.15-.57-.31-.8-.59-1.11m15.62,34.86s.02.08.04.11l1.36-.36s-.02-.06-.02-.1c-.42.23-.96.06-1.38.34m-15.83-36.76l-.13.11.82,1.03s.06-.04.08-.08l-.77-1.07Zm18.46-1.25l.15.13.54-.8-.13-.1c-.17.27-.36.52-.56.77m-20.32,1.88c.13.12.25.25.36.38.09.13.16.27.21.42l.1-.04c-.08-.21-.13-.42-.21-.61s-.11-.25-.19-.27-.21.1-.27.11m17.52,34.56s.02.08.04.11l1.13-.29s-.02-.06-.02-.1c-.38.11-.82-.04-1.15.27m-19.66-5.16l.11.13.8-.71-.08-.1-.84.67m23.21-30.28l.13.11.73-.9-.1-.1-.77.88m-10.98,18.44c-.38.25-.52.52-.4.77.25-.19.46-.4.4-.77m6.19-26.22c-.34-.33-.75-.38-.94-.17l.94.17m-12.44,25.84l.11.04c.1-.31.19-.63.27-.94l-.15-.04-.23.94m2.74,16.02h.59v-.08l-.46-.34-.13.42m.71-9.66v.04c.21.12.44.22.67.31.06.02.13-.06.21-.1s-.1-.13-.17-.15l-.71-.1m12.63,1.99c-.5-.02-.65.17-.48.56l.48-.56m-17.33-22.14l-.06.06.77.92.1-.1-.8-.88m14.82,34.1c.29.19.54.06.86-.11-.36-.19-.61.06-.86.11m-15.68-35.32l.13-.08-.61-.92-.1.06.57.94m21.62.04l.1.08.71-.84-.1-.1-.71.86m-23.46,3.45s-.08.06-.1.1l.65.94.11-.08c-.23-.31-.46-.63-.67-.96m21.52-5.67l-.11-.1c-.21.14-.34.35-.38.59l.11.1.38-.59m-26.58,1.74l.13.08.56-.9-.11-.06-.57.88m5.58,2.18l.1-.06-.67-.98-.08.06.65.98m6.27-11.48l.04.11,1.05-.27-.04-.1-1.05.25m2.87-1.02c.36.04.75.08,1.02-.21v-.1l-1,.31m8.91,29.21l.15.11.5-.59-.1-.08-.56.56m-6.23,10.22l.1.11.73-.71-.06-.08-.77.67m-.94-39.4s-.02-.08-.02-.11l-.86.23s.02.08.04.11l.84-.23m12.78,23.29l-.06-.11-.59.4.1.13.56-.42m-24.59,15.47l.04.04c-.21.17-.42.34-.61.54l.1.11.48-.69Zm15.79-14.43c.42.02.46-.04.36-.44l-.36.44M15.5,13.82c-.33-.02-.54.15-.59.56l.59-.56m26.87,34.82c.42-.1.56-.23.65-.56l-.65.56m-7.9-31.07l-.1-.06-.46.61.1.08.46-.63Zm-3.26,37.18l.06.13.46-.13s.06-.07.06-.11c0-.02-.06-.08-.08-.06-.17.05-.34.11-.5.17m-14.97-4.83l-.08-.06c-.38.15-.38.17-.36.52l.44-.46"/>
      <path class="cls-2" d="m23.03,42.49c-.61,1.9-1.51,3.74-1.95,5.75-.06-.21-.13-.43-.21-.63-.23-.52-.4-1.05-.73-1.49s-1.15-1.4-2.01-1.84-1.28-.29-1.95-.17l-1.67.29c-.44.08-.86.29-1.19.59-.23.19-.47.37-.73.52l-1.53-1.84c-.19-.28-.41-.53-.65-.77-.59-.52-.9-1.19-1.21-1.88-.65-1.46-1-2.97-1.36-4.5-.15-.71-.23-1.46-.34-2.18-.08-.55-.13-1.1-.15-1.65,0-.46.05-.92.13-1.38.06-.67.1-1.36.17-2.03.06-.33.15-.66.25-.98.1-.5.17-1,.31-1.48.09-.4.21-.79.34-1.17.11-.42.25-.84.38-1.26s.4-1.38.67-2.03c.21-.47.46-.92.75-1.34l.77-1.3c.36-.61.73-1.23,1.05-1.86s.71-.86,1.07-1.3c.1-.11.15-.29.27-.4s.46-.48.67-.73c.21-.25.46-.56.71-.82s.27-.1.4-.17c.14-.06.26-.14.36-.25.09-.12.16-.26.21-.4.29.31.54-.06.82-.21l2.18-1.05c.57-.29,1.17-.59,1.76-.86.29-.1.58-.18.88-.23,1.03-.25,2.11-.44,3.12-.77.56-.17,1.11-.06,1.65-.25l.65-.19.8-.19h.1c.22-.09.44-.2.65-.33-1.25.1-2.43.56-3.72.57l.19-.08c.88-.25,1.8-.46,2.68-.73.69-.19,1.41-.21,2.11-.06l-.29.21.59.1c.79.23,1.57.48,2.36.67s1.61.34,2.4.52c.19.04.36.13.54.17s.36.25.56,0l.19.08.92.56c.4.21.79.44,1.17.67l2.03,1.15.11.1s-.02.06-.02.08l-.52-.11c.12.3.43.47.75.4.25-.05.5.02.69.19.27.2.52.41.75.65.19.19.34.44.54.63.48.48,1,.92,1.48,1.4.6.55,1.16,1.14,1.69,1.76.4.54.65,1.21.98,1.8.17.29.38.56.54.86s.36.82.54,1.23.54,1.34.79,2.01c.13.39.22.79.29,1.19.29,1.32.61,2.66.79,4.01.19,1.28.22,2.58.1,3.87-.1,1-.11,1.99-.21,2.99-.06.39-.16.76-.29,1.13-.25.86-.46,1.74-.79,2.59-.59,1.55-1.47,2.98-2.59,4.22-.56.63-1.09,1.28-1.65,1.9-.25.26-.52.5-.8.73-.57.52-1.13,1.07-1.74,1.55s-1.57,1.17-2.38,1.72c-.18.11-.37.2-.57.27-.04-.21-.08-.34-.1-.5-.15-1.26-.48-2.48-1-3.64-.25-.59-.42-1.23-.67-1.8s-.63-1.3-.92-1.97c-.2-.42-.36-.85-.46-1.3-.02-.13.23-.4.42-.52.56-.34,1.17-.61,1.74-.96.33-.23.64-.49.92-.79.4-.43.77-.87,1.11-1.34.46-.63.96-1.28,1.03-2.11.34-.31.21-.73.23-1.11s.04-1.26.06-1.9.1-1.71.1-2.57c-.02-.62-.08-1.25-.19-1.86-.16-.74-.36-1.47-.61-2.18-.21-.65-.54-1.26-.77-1.92-.12-.41-.39-.77-.75-1.02.11-.31.23-.56.33-.82.31-.77.63-1.53.94-2.32l.04-.08c-.19-.5.15-.92.21-1.38.02-.08.02-.17-.02-.25-.36-.23-.11-.5-.06-.75s.04-.27-.02-.29c-.38-.23-.13-.46-.02-.69s.1-.17.17-.33l-.29.06c-.11.02-.29.08-.34.02s-.25-.31-.11-.52c.11-.18.2-.36.27-.56l-.06-.08-.59.29c-.27-.29-.48-.59-.77-.77s-.9-.61-1.4-.65c-.68-.05-1.36.01-2.01.19-1.02.23-1.88.77-2.66,1.42s-1.17.94-1.42,1.72-.5,1.02-.75,1.51c-.03.04-.05.1-.06.15.06.42-.21.36-.48.38-1.38.11-2.76.25-4.06.75-.69.24-1.38.44-2.09.61h-.29c-.25-.59-.54-1.17-1.03-1.59l-.06-.04c-.63-.82-1.46-1.44-2.26-2.11-.27-.23-.44-.61-.65-.94s-.15-.21-.21-.21c-.11.04-.2.11-.25.21-.05.11-.07.23-.08.34l-.56-.1c-.06-.02-.11.04-.17.06.03.05.06.1.08.15l.23.65c.09.22.14.45.17.69-.08-.08-.16-.17-.23-.27l-.56-.9c-.13-.21-.13-.36.21-.36-.46-.38-.86-.15-1.28-.02-.16.03-.32.08-.46.15-.21.13-.46.27-.67.42s-.34.29-.52.42-.08.25-.29.19-.15.21-.21.34-.1.29-.34.23-.34.02-.23.27-.04.69-.11,1.02c-.19.82-.5,1.63-.34,2.49.11.86.41,1.68.86,2.41.28.42.58.83.9,1.23.23.23.28.59.13.88-.3.69-.41,1.45-.33,2.2.08.69.04,1.42.1,2.11.08.69.19,1.37.34,2.05.21,1,.54,1.99.69,3.01s.65,1.55,1.03,2.28.65.82,1.03,1.19c.88.84,1.76,1.65,2.84,2.24.63.36,1.3.63,1.97.94"/>
      <path class="cls-1" d="m25.89,49.29c.08.46.11.48.63.13l-.48.65c.1.04.17.13.23.11s.19,0,.11.15l.29.11c.07-.01.13-.05.17-.11.33-.36.65-.75,1-1.11.21-.18.44-.35.67-.5l.1.11-.44.5c-.44.42-.88.82-1.3,1.26-.06.06-.04.17-.08.25.09.03.18.04.27.04.15.01.26.14.25.29,0,.03,0,.05-.02.08-.04.08-.1.17-.08.19.29.31.21.61-.04,1l-4.2-.79q.27-.29.82-.08c.27-.34.15-.56-.38-.65l.08-.1q.36-.29-.02-.54l-.11-.11c-.11-.31-.31-.31-.57-.15s-.21-.04-.33-.06c0-.11.03-.22.08-.33.11-.15.4-.19.29-.46s-.34-.08-.52-.08l-.56.04c.02-.3.06-.6.11-.9.27-1.07.56-2.15.84-3.22.05-.35.31-.63.65-.71l-.42.61c.15.27.31.15.44,0s.23-.25.34-.36l.08.06c-.09.12-.16.25-.21.38-.02.06.04.15.06.23s.23-.02.25-.08.34-.36.61-.17c.08.03.17.04.25.02.31-.15.61-.29.9-.46s.11-.25.17-.36c-.13-.03-.25-.04-.38-.04l-1.05.23c.04-.11.04-.15.06-.19s.02-.27.02-.38c-.13.03-.25.05-.38.06-.09,0-.17-.02-.25-.06-.12-.1-.24-.2-.34-.31.11-.15.27-.36-.17-.46.06-.13.06-.27.15-.36.09-.1.21-.17.34-.19.5-.02,1.02,0,1.51-.04.13-.02.27-.15.42-.23.36.71,1,1.19,1.69,1.53.3.11.63.14.94.08.67-.07,1.32-.29,1.9-.65.11-.06.22-.14.31-.23.44-.52.7-1.18.73-1.86.11-1.01.16-2.03.15-3.05-.03-.99.03-1.97.17-2.95.05-.57.04-1.14-.02-1.71-.08-1.03-.1-2.07-.08-3.12.03-.66.12-1.33.27-1.97.21-.94.67-1.05,1.46-.98.29.02.57.02.84.06.22.02.44.07.65.13.56.15,1.09.31,1.63-.02s.57-.71.54-1l-.06-.56c-.02-.47-.37-.87-.84-.94-.22-.04-.43-.11-.63-.19-.44-.16-.91-.17-1.36-.04-.3.1-.6.18-.9.25-.38.1-.57.38-.79.65-.31.36-.59.73-.84,1.13-.23.4-.46.84-.27,1.36.03.04.04.1.04.15-.08.98-.11,1.94-.21,2.91-.06.56-.19,1.11-.27,1.69-.04.25-.17.31-.44.29.07-.07.13-.15.19-.23.03-.07.05-.15.06-.23-.08,0-.19-.02-.25.02-.4.25-.79.52-1.17.79l-.06-.06c.29-.29.57-.59.88-.86s.23-.25.04-.38l-.1-.11c-.17-.33-.27-.36-.71-.27l.27-.34-.36-.27c-.42.32-.76.72-1,1.19-.08.21-.13.43-.15.65.15.22.29.45.42.69.06.08.02.21.02.33s.02.15.02.23.19,0,.25-.06.52-.46.8-.67.17-.1.25-.13l.06.08c-.11.13-.22.27-.31.42-.04.08-.05.16-.04.25.08-.02.19-.02.25-.08l.48-.48.11.1-.52.67c-.08.12-.15.25-.21.38.14-.04.28-.09.42-.15.19-.12.37-.26.54-.4l.1.08-.82.9c.4.11.56-.27.82-.33s.36.44.34.8c-.04.77.06,1.53.04,2.3s-.04,1.95-.13,2.91-.27,1.34-.77,1.88c-.32.38-.79.61-1.28.63-.57.02-1.19.06-1.69-.34s-.9-.75-1.11-1.34c-.05-.17-.07-.36-.06-.54-.06-.86-.1-1.71-.13-2.57-.02-.54-.02-1.09-.04-1.63l-.11-2.2c-.04-.73-.02-1.48-.15-2.18-.09-.65-.31-1.29-.63-1.86-.59-.88-1.26-1.71-1.99-2.47-.42-.42-1.02-.69-1.55-1.02-.23-.15-.5-.25-.75-.38s-.48-.17-.71.04h-.15c-.13-.04-.33-.13-.4-.08-.42.25-.96.29-1.19.79-.04.14-.07.28-.1.42-.13.98.19,1.44,1.11,1.74s1.36.02,1.95-.29,1.38-.44,2.05-.08c.25.15.47.35.65.57.23.27.42.56.63.84.46.63.59,1.38.69,2.11s.04,1.15.04,1.74v.57c-.42-.08-.44.46-.84.56.06-.15.14-.29.23-.42.13-.13.21-.25.08-.38s-.25.02-.34.1c-.08.06-.16.11-.25.15.13-.27.23-.46.31-.65,0-.1,0-.21-.04-.31-.1.01-.19.04-.27.1l-.5.42-.1-.08c.12-.23.25-.45.4-.65.23-.23.08-.5.15-.75-.07-.07-.17-.11-.27-.11-.17.05-.32.13-.46.23-.31.21-.31.38,0,.61l-.4.56c-.11.19-.34.38-.11.65s-.02.15-.08.23l-.36.57c-.04.08.02.19.04.29s.15-.08.19-.13.31-.69.8-.8c-.23.44-.44.82-.67,1.21l.06.1.54-.23.04.06c-.1.13-.21.25-.31.4s-.13.29.04.38.21-.02.33-.06c.13-.09.27-.16.42-.21-.02.06-.06.1-.06.15s.02.19.08.23.17.02.23-.02c.16-.15.34-.29.52-.42-.02.46.19.69.61.75.06,0,.13.25.13.38-.02.77-.1,1.51-.06,2.28.05.41.14.81.29,1.19.04.17.1.34-.13.36-.56.08-1.11.11-1.69.17,0-.06-.02-.11-.02-.17l1.17-.21c0-.06-.02-.1-.02-.15-.12.05-.24.07-.36.06-1.42-.19-2.86-.38-4.1-1.15-.94-.57-1.69-1.36-2.43-2.18s-.73-1.36-1-2.09c-.04-.16-.11-.32-.19-.46-.17-.25-.02-.44-.02-.67l.1-.04.13.19.46.06c.07-.02.13-.07.17-.13.02-.12.06-.24.11-.34l.11.25c.1.17.19.38.46.21.04-.04.11-.04.15,0,.24.2.47.41.69.63.04.04-.02.17-.08.23-.07.05-.15.08-.23.1-.52.13-.56.17-.61.69l.63.46h.08c.06-.01.11-.04.15-.08.21-.23.69-.11.73-.59,0-.17.07-.34.17-.48.25-.36.1-.79.19-1.17v-.04c-.29-.21-.25-.54-.25-.84,0-.13,0-.26-.02-.38-.03-.12-.07-.23-.11-.34l-.33.1-.29.25-.5-.34-.23-.44h-.1l-.23.9h-.08c0-.19-.03-.39-.08-.57-.02-.11-.11-.31-.15-.31-.17,0-.32.08-.44.19-.12.2-.22.42-.29.65-.04-.25-.06-.46-.1-.65h-.08l-.71.9c-.05-.11-.08-.21-.11-.33-.13-.75-.25-1.48-.36-2.22l-.29-1.95c-.02-.23-.06-.48-.06-.71,0-.71,0-1.42.02-2.13,0-.42.17-.67.48-.73.02-.1.04-.21.08-.31.33.13.56.13.48-.33-.02-.11.13-.25.21-.36l.52.27s.06-.06.1-.08l-.31-1.02.38-.11c.17-.06.4-.08.21-.36,0-.08.02-.15.08-.21.1-.02.25-.04.31.02s.42.44.67.71c.29-.56-.27-.77-.4-1.17.29.02.57.04.4-.36l.56-.27.65.92.13-.04c.01-.11,0-.22-.02-.33-.11-.21-.27-.42-.4-.63l.06-.08c.08.06.17.11.27.13l.36.08c-.02-.13,0-.27-.02-.4s-.04-.1-.1-.19l.75.29.33.04c.42-.04.42-.06.23-.44l-.06-.08c.4-.46.63-.46,1.19.15,0-.12,0-.24,0-.36-.03-.11-.07-.21-.11-.31l.11-.1.27.52.59-.63.08.06c-.04.08-.06.15-.13.34l.88-.36.67-.33c.52-.19,1.05-.38,1.59-.54.54-.15.9-.17,1.34-.27l.84-.15c.56-.08,1.09-.15,1.65-.04-.04.19-.06.34-.1.5l.15.06c.05-.15.12-.29.19-.42.1-.21.23-.17.38-.06-.09.21-.16.43-.21.65-.04.25.1.33.33.21l.9-.48c.02.44.04.46.69.25-.11.19-.25.36-.34.56-.03.09-.04.19-.04.29.11,0,.22-.04.31-.1.13-.13.25-.28.34-.44.07-.06.17-.09.27-.06l-.4.82c.25.19.4.1.54-.1s.06-.15.11-.17c.14-.05.28-.1.42-.13.04.1.08.2.1.31.04.15.06.31.11.54.13-.14.27-.28.42-.4.08-.07.18-.12.29-.15,0,.09,0,.18-.04.27-.11.21-.08.31.15.27h.13c.25.25.48.25.75,0s.31,0,.25.23c0,.1,0,.2,0,.31.08-.06.11-.13.19-.17.07-.03.14-.05.21-.06,0,.06.02.13-.02.17s-.1.17-.11.27c-.03.1-.03.2-.02.31l.36-.08c.06-.02.1-.11.11-.17s.21-.31.42-.17.29.23.13.44,0,.13,0,.21.19,0,.23-.06.38-.17.5.08.06.1.1.1c.75.19,1,.86,1.25,1.44.47,1.01.77,2.09.9,3.2.13,1.46.4,2.91.34,4.39,0,.15-.02.31-.02.46s-.06.34-.48.38l.34-.4c-.29-.34-.56.13-.9,0l.82-.71c-.13-.02-.27-.02-.4,0-.34.17-.7.32-1.07.42l.73-.8c.05-.09.09-.19.11-.29-.1,0-.21-.04-.29,0s-.4.19-.61.29l.19-.38-.4-.13.57-.61c-.52-.06-.8.34-1.28.44l.63-.84-.06-.08c-.42,0-.65.4-1,.56l-.33-.36.25-.33s.02-.09,0-.13c-.04-.04-.11-.06-.13-.04l-1.34,1.26s0,.06,0,.08c.29.21.56.15.8-.15l.06.13-.8.94c-.06.11-.1.22-.11.34.13-.02.26-.05.38-.11.23-.19.42-.4.63-.61l.08.1c-.19.23-.4.46-.61.67s-.33.36.08.52c-.08.1-.17.15-.21.23-.03.08-.03.17-.02.25.08-.02.19-.02.25-.08l1-1.02c.06-.06.13-.1.21-.13.04.04.08.06.1.1l-1.32,1.48.06.11c.1-.03.2-.08.29-.13l.84-.8c.19.21.15.33-.02.48s-.42.42-.61.63c-.06.1-.11.21-.15.33.04.02.06.06.08.1.11-.05.22-.13.31-.21.25-.23.48-.5.73-.75.11-.06.22-.1.34-.11l.06.11-.96,1,.23.19c.46-.44.84-.94,1.46-1.15l.08.1c-.21.17-.41.35-.59.54-.13.19-.52.31-.27.69l.57-.42.04.06s-.04.08-.04.11c0,.08,0,.17-.02.25.1,0,.21.04.27,0l.77-.59c-.04.19-.07.38-.08.57l.34.08c.07.12.13.25.17.38.02.11.08.31.02.4-.27.52-.57,1.03-.86,1.55h-.02c-.31.75-1.05,1.05-1.63,1.53-.19.15-.4.31-.63.04-.05-.04-.11-.06-.17-.06l-.92.17c-.14-.24-.3-.47-.48-.69-.04-.06-.19-.06-.27-.02-.15.06-.29.15-.42.25-.21-.21-.06-.38.04-.52s.19-.31-.11-.31-.08-.04-.13-.06-.21-.13-.31-.11-.33-.06-.19-.27.25-.31.34-.46c.05-.12.09-.24.11-.36l-.34.04c-.06.02-.13.1-.17.08-.63-.29-.84.29-1.17.59s-.02.29.13.34l.38.15c-.27.61-.52,1.19-.79,1.76l.11.08c.08-.06.13-.13.23-.15h.31c0,.08.02.19-.02.25s-.21.29-.29.44c-.03.09-.04.18-.04.27l.29.04c.1.25.21.29.44.11.12-.12.3-.13.44-.04.46.33.59.27.94-.17s.42-.44.63-.67l.1.06c-.04.12-.09.23-.15.34q-.21.29.15.63l-.29.11c-.92.4-1.88.69-2.89.63-.38,0-.76.02-1.13.06l-.15.1c.01.08.06.14.11.19.08.04.16.06.25.06.69-.02,1.38-.02,2.07-.08.3-.03.6-.11.88-.23.27-.1.4-.04.48.21.21.63.42,1.26.65,1.88s.56,1.23.82,1.84c.04.08-.02.19-.04.29s-.21-.08-.25-.15-.38-.34-.21-.63-.04-.11-.08-.15c-.34-.36-.59-.8-.73-1.28-.02-.08-.17-.15-.27-.17s-.36.04-.54-.15c-.16-.14-.4-.13-.54.02,0,0,0,.01-.01.02-.34.4-.71.8-1.05,1.23-.06.06-.04.17-.06.27s-.1.29-.13.48.27.08.4-.11c.16-.21.34-.41.54-.59,0,.31,0,.59-.25.8s-.1.23-.13.34h.38c.31.27.33.27.71-.13.07-.08.18-.14.29-.15-.02.04-.02.11-.04.13s-.1.4-.02.59.31.15.5.15.42,0,.46.08.23.46-.1.69c-.16.16-.27.36-.34.57-.01.09.02.19.1.25.06.06.19.04.27,0,.46-.18.87-.49,1.17-.88.08-.1.23-.13.42-.25.23.69.5,1.36.67,2.03s.19,1.38.29,2.03c-.34.15-.57.27-.84.36s-.31.11-.46-.13c-.44-.65-.96-1.25-1.44-1.88h.02c-.28-.44-.68-.8-1.15-1.02h.02c-.27-.46-.75-.46-1.19-.56s-1.13.08-1.69.15c-.08.03-.16.08-.23.13l-.69.48c-.09.05-.17.13-.23.21-.4.71-.82,1.42-1.15,2.15-.19.42-.25.9-.36,1.36-.11.46-.1.29-.33.27-.2-.02-.4-.03-.59-.02.11-.29.29-.59.31-.9.05-.37.14-.73.29-1.07.04-.07.08-.13.13-.19.13-.25.29-.5.42-.77s.02-.11,0-.15-.08-.27.04-.4.06-.34-.13-.46l-.27-.21c-.23-.25-.44-.52-.67-.79l-.34.13s.02-.06.02-.08l-.84-.36c-.02-.13.31-.34-.08-.5-.36.27-.71.63-1.15.79s-.67.56-1,.84c-.07.08-.13.17-.17.27l.04.06.4-.13-.06.69.52.36c-.1.06-.17.08-.19.11s-.13.23-.1.29.25.06.36-.06l.56-.46-.02.04Zm.9-23.44c-.19-.13-.34-.34-.48-.33-.2.06-.38.16-.54.29-.08.08-.12.18-.11.29.02.08.15.11.25.17l.54.31c.11.06.29.13.38.1.51-.22,1.01-.47,1.49-.75.5-.31.98-.65.84-1.38,0-.14.08-.26.19-.34q.4-.31.23-.65c.05-.14.08-.29.08-.44,0-.04-.21-.04-.33-.08-.1-.03-.19-.07-.27-.13-.34-.19-.75-.23-1.13-.38h-.02c-.31.11-.5.04-.67-.25-.06-.1-.16-.16-.27-.17-.32,0-.64.03-.96.08-.5.06-.88.56-1.46.33-.44.31-.86.61-1.02,1.19l.9-.19.21.15-.1.27c.4.1.65-.52,1.09-.15-.07.05-.14.11-.19.17-.04.09-.04.18,0,.27.22.26.6.34.9.17.14-.06.29-.11.44-.15.02.04.04.06.04.08s-.13.21-.17.31l.48.46c.31.27.36-.23.59-.17l.04.04-1,.9m.77,16.39l.1.08.5-.29c.42.31.88.57,1.44.36.1-.02.25-.04.25-.08.03-.15.03-.29.02-.44-.38.4-1,.48-1.34.11-.14-.16-.23-.38-.23-.59,0-.06.25-.13.38-.21s.11-.04.13-.08c.27-.42.71-.75.65-1.36-.02-.29-.11-.42-.38-.46-.67-.11-1.36-.17-1.99.23-.16.08-.27.24-.29.42.02.31.08.59.4.75.08.02.14.09.15.17.04.21.11.34.36.29s.19.15.17.19c-.05.23-.11.45-.19.67-.04.08-.08.16-.13.23m.77,3.12l.77.27.08.06c.31.27,1.05.33,1.4.11.16-.08.32-.19.46-.31.11-.09.19-.22.21-.36,0-.19-.59-.5-.8-.46l-.69.13c-.09-.27-.2-.53-.33-.79-.02-.06-.25-.06-.33-.02s-.4.4-.59.61c-.06.08-.11.17-.13.27-.02.13-.02.29-.04.48m-1.71-3.74h-.11c0,.13.02.26.06.38.1.19.69.33.94.21-.46-.02-.79-.15-.88-.61"/>
      <path class="cls-1" d="m35.39,49.1c-.02.48.42.65.59,1.02.13.22.27.43.42.63.19.31.02.57-.44.63l-1.94.25c-.08,0-.17.02-.23-.02-.46-.25-.88,0-1.32.08-.34.03-.69.04-1.03.04-.54,0-1.05,0-1.55-.23-.17-.08-.4-.02-.63-.02-.01-.08,0-.16.02-.23.31-.73.59-1.48.96-2.18.19-.33.38-.71.82-.84.13-.02.21-.17.33-.21s.65-.13.96-.25c.63-.23,1.17.1,1.72.33l.21.04h-.02c.07.1.14.2.23.29l.92.73-.02-.04Z"/>
      <path class="cls-1" d="m17.7,49.56c-.13-1.09-.69-2.03-1.26-2.93-.37-.53-.86-.97-1.42-1.28-.31-.19-.65-.21-1.05-.34.11-.1.17-.19.23-.21l2.24-.34c.54-.09,1.1-.06,1.63.1.09.03.17.08.23.15l-.54.61c-.07.1-.12.21-.15.33.16.02.32.02.48-.02.15-.09.29-.2.4-.33l.08.1-.59.52c-.12.06-.22.15-.31.25-.05.1-.08.21-.1.33.11-.02.23.02.33-.02.12-.09.24-.19.34-.31l.25-.15.08.08-.25.29c-.08.08-.19.11-.25.21s0,.17-.02.27h.23l.67-.42s.06.06.08.1l-.98.79.1.15,1.32.75c.14-.13.27-.27.38-.42.15-.21.04-.4-.21-.44s-.56-.31-.31-.65.25-.54-.02-.8c-.11-.16-.21-.33-.31-.5.07.01.15.04.21.08.46.57,1.02,1.09,1.25,1.86s.48,1.34.54,2.05c.02.29-.04.56-.04.82s-.08.48.31.54.17.31.25.46l-.1.08-.98-.59c-.69-.42-1.36-.9-2.17-1.07-.19-.04-.38-.04-.57-.02"/>
      <path class="cls-1" d="m7.97,38.62l.17.5c.29.82.48,1.69.86,2.45s.88,1.23,1.36,1.84,1,1.26,1.48,1.92c-1.23-.67-1.9-1.88-2.66-2.95s-1-2.43-1.34-3.7l.13-.06"/>
      <path class="cls-1" d="m7.68,25.18c0,.16-.03.31-.08.46-.27.54-.31,1.09-.38,1.67-.04.23-.15.44-.19.65s-.06.71-.08,1.05c-.06.9-.13,1.82-.17,2.72-.02.33.04.65.04.98,0,.15-.02.29-.04.44h-.1c-.03-.09-.05-.19-.06-.29v-2.13c-.05-.5-.07-1.01-.06-1.51.08-.54.19-1.07.33-1.59.13-.61.27-1.21.42-1.78.06-.24.15-.47.25-.69h.11"/>
      <path class="cls-1" d="m38.12,16.39c.11-.15.21-.33.31-.48s-.06-.06-.1-.1l-.46.31-.06-.06.4-.67-.04-.17-1.51,1.32-.08-.06.46-.56c.27-.36.52-.73.79-1.05.1-.07.23-.09.34-.06.2.18.38.38.54.59.06.08.13.19.11.25-.15.31-.36.58-.61.8l-.1-.08"/>
      <path class="cls-1" d="m37.33,14.39c-.11.52-.45.97-.92,1.23l.21-.36.23-.34c-.54,0-.63.54-1.02.63-.11-.88.61-1.44,1.49-1.15"/>
      <path class="cls-1" d="m14.24,14.66c-.52.59-1.07,1.13-1.55,1.74s-.88,1.28-1.38,1.9c.04-.13.09-.26.15-.38.31-.56.61-1.11.96-1.65.2-.26.42-.5.67-.71l.88-.82.17-.15.1.08Z"/>
      <path class="cls-1" d="m17.61,18.84c.8.92,1.55,1.76,2.32,2.66l-.21.15c-.38-.25-2.11-2.49-2.11-2.82"/>
      <path class="cls-1" d="m7.35,28.54c-.03-.07-.03-.14-.02-.21.11-.63.23-1.26.38-1.88.08-.31.17-.61.29-.9.08-.25.17-.5.27-.75.1-.25.08-.08.19-.17-.36,1.36-.71,2.64-1.03,3.91h-.08"/>
      <path class="cls-1" d="m32.02,9.85c1.19.23,2.45.19,3.51.96-1.15-.38-2.4-.44-3.51-.96"/>
      <path class="cls-1" d="m39.73,16.98c-.26.71-.78,1.29-1.46,1.63.02-.48,1.02-1.61,1.46-1.63"/>
      <path class="cls-1" d="m37.64,19.91c-.36.75-1.28,1.86-1.53,1.86-.02-.33,1.05-1.67,1.53-1.86"/>
      <path class="cls-1" d="m19.18,17.12c.52.57.8,1.28,1.19,1.94-.52-.56-1.15-1.05-1.19-1.94"/>
      <path class="cls-1" d="m41.99,49.33c-.61.63-1.44.82-2.2,1.13.75-.34,1.32-1.05,2.2-1.13"/>
      <path class="cls-1" d="m18.87,11.63c.79-.36,1.46-.96,2.4-1.03-.71.61-1.55.84-2.4,1.03"/>
      <path class="cls-1" d="m36.47,16l-1.34,2.13-.15-.11c.44-.69.79-1.48,1.38-2.09l.11.08Z"/>
      <path class="cls-1" d="m22.3,21.01c-.07-.01-.13-.03-.19-.06-.05-.04-.09-.09-.11-.15l-1.03-2.03s-.04-.11-.06-.17l.1-.04,1.38,2.36-.08.1"/>
      <path class="cls-1" d="m14.02,22.9l1.49,2.43-.11.06c-.65-.71-1.07-1.57-1.46-2.43l.08-.06"/>
      <path class="cls-1" d="m31.64,18.65c.65-.86.88-1.97,1.63-2.78l.1.06-1.61,2.8-.11-.08"/>
      <path class="cls-1" d="m44.98,46.27c-.29.63-.71,1.13-1.46,1.3l1.4-1.38.06.08"/>
      <path class="cls-1" d="m14.77,22.04c-.27-.38-.54-.79-.84-1.15s-.15-.33,0-.57c.31.59.73,1.07.96,1.67l-.11.06"/>
      <path class="cls-1" d="m34.9,15.91l.46-.88c.05-.13.12-.25.19-.36.09-.06.18-.11.29-.13.02.08.06.19.02.25l-.57.79-.31.4-.08-.06"/>
      <path class="cls-1" d="m15.58,20.66l-1.19-1.69.15-.11,1.19,1.69-.15.11"/>
      <path class="cls-1" d="m34,15.89c.21-.59.67-.96,1.19-1.28-.13.25-.1.63-.54.61-.1,0-.17.17-.25.27l-.33.46-.08-.06"/>
      <path class="cls-1" d="m34.72,19.24l1.02-1.4c0,.5-.25.84-1.02,1.4"/>
      <path class="cls-1" d="m49.06,24.61c-.31-.79-.61-1.57-.9-2.36h.08c.44.73.61,1.55.82,2.38"/>
      <path class="cls-1" d="m38.27,17.1l.67-1s.11-.06.19-.08.06.19.02.23l-.79.92s-.06-.06-.1-.08"/>
      <path class="cls-1" d="m38.48,19.51l.75-1.05c.19.34-.11.8-.75,1.05"/>
      <path class="cls-1" d="m39.09,32.08l-.92.88c.04-.48.27-.69.92-.88"/>
      <path class="cls-1" d="m18.55,12.32l-1.26.57c.11-.31.79-.63,1.21-.67l.06.1"/>
      <path class="cls-1" d="m36.95,17.65c.15-.48.45-.91.84-1.23l.08.06-.84,1.21-.08-.04"/>
      <path class="cls-1" d="m38.27,21.47c-.27.38-.52.71-.77,1.03-.17-.29.27-.86.77-1.03"/>
      <path class="cls-1" d="m34.23,15.12l-.31.4c-.42-.36-.52.42-.98.19l1.21-.69.08.1"/>
      <path class="cls-1" d="m23.09,10.29l1.42-.36c-.27.31-.98.5-1.42.36"/>
      <path class="cls-1" d="m31.29,18.17c-.21.42-.44.84-.65,1.28l-.13-.06c-.06-.15.02-.23.17-.36s.17-.33.27-.48.17-.29.27-.44l.08.06"/>
      <path class="cls-1" d="m45.19,45.88l.98-1.17c-.11.57-.54.88-.98,1.17"/>
      <path class="cls-1" d="m17.23,19.43c.29.31.75.54.59,1.11-.19-.38-.38-.75-.59-1.11"/>
      <path class="cls-1" d="m25.91,49.29c.36-.38.75-.77,1.13-1.13l.11.11c-.16.16-.34.3-.52.44l-.75.57h.02"/>
      <path class="cls-1" d="m32.85,54.3c.42-.29.96-.11,1.38-.34,0,.04.02.06.02.1l-1.36.36s-.02-.08-.04-.11"/>
      <path class="cls-1" d="m17.01,17.54l.77,1.07s-.06.06-.08.08l-.82-1.03.13-.11"/>
      <path class="cls-1" d="m35.47,16.29l.56-.77.13.1-.54.8-.15-.13"/>
      <path class="cls-1" d="m15.16,18.17c.06-.02.17-.13.27-.11s.15.17.19.27.13.4.21.61l-.1.04c-.05-.15-.12-.29-.21-.42-.11-.14-.23-.27-.36-.38"/>
      <path class="cls-1" d="m32.67,52.73c.33-.31.77-.15,1.15-.27,0,.04.02.06.02.1l-1.13.29s-.02-.08-.04-.11"/>
      <path class="cls-1" d="m13.01,47.57l.84-.67.08.1-.8.71-.11-.13"/>
      <path class="cls-1" d="m36.22,17.29l.75-.88.11.1-.73.9-.13-.11"/>
      <path class="cls-1" d="m25.24,35.73c.06.36-.15.57-.4.77-.11-.25.02-.52.4-.77"/>
      <path class="cls-1" d="m31.43,9.51l-.94-.17c.19-.21.59-.15.94.17"/>
      <path class="cls-1" d="m18.99,35.34l.23-.94.17.04-.29.94-.11-.04Z"/>
      <path class="cls-1" d="m21.73,51.36l.13-.42.46.34v.08h-.59Z"/>
      <path class="cls-1" d="m22.44,41.7l.71.1c.08.02.11.1.17.15s-.15.11-.21.1c-.23-.08-.46-.19-.67-.31v-.04Z"/>
      <path class="cls-1" d="m35.07,43.7l-.48.56c-.17-.38-.02-.57.48-.56"/>
      <path class="cls-1" d="m17.74,21.56l.8.88-.1.1-.77-.92.06-.06"/>
      <path class="cls-1" d="m32.56,55.66c.25-.06.5-.31.86-.11-.33.17-.57.31-.86.11"/>
      <path class="cls-1" d="m16.88,20.34l-.57-.94.1-.06.61.92-.13.08"/>
      <path class="cls-1" d="m38.5,20.37l.71-.86.1.1-.71.84-.1-.08"/>
      <path class="cls-1" d="m15.04,23.82c.21.33.44.65.67.96l-.11.08-.65-.94s.06-.06.1-.1"/>
      <path class="cls-1" d="m36.56,18.15l-.38.59-.11-.1c.04-.24.18-.46.38-.59l.11.1"/>
      <path class="cls-1" d="m9.98,19.89l.57-.88.11.06c-.19.31-.38.59-.56.9l-.13-.08"/>
      <path class="cls-1" d="m15.56,22.08l-.65-.98.08-.06.67.98-.1.06Z"/>
      <path class="cls-1" d="m21.83,10.6l1.05-.25.04.1-1.05.27-.04-.11Z"/>
      <path class="cls-1" d="m24.7,9.58l1-.31v.1c-.27.29-.65.25-1.02.21"/>
      <path class="cls-1" d="m33.61,38.79l.56-.56.1.08-.5.59-.15-.11"/>
      <path class="cls-1" d="m27.38,49.01l.77-.67.06.08-.73.71-.1-.11"/>
      <path class="cls-1" d="m26.46,9.6l-.84.23s-.02-.08-.04-.11l.86-.23s0,.08.02.11"/>
      <path class="cls-1" d="m39.25,32.89l-.56.42-.1-.13.59-.4.06.11Z"/>
      <path class="cls-1" d="m14.66,48.36l-.48.69-.1-.11c.19-.19.4-.36.61-.54l-.04-.04"/>
      <path class="cls-1" d="m30.45,33.92l.36-.44c.1.4.06.46-.36.44"/>
      <path class="cls-1" d="m15.5,13.82l-.59.56c.06-.4.27-.57.59-.56"/>
      <path class="cls-1" d="m42.37,48.64l.65-.56c-.1.33-.23.46-.65.56"/>
      <path class="cls-1" d="m34.47,17.58l-.46.63-.1-.08.46-.61.1.06"/>
      <path class="cls-1" d="m31.22,54.76c.16-.07.33-.12.5-.17.02-.02.1.04.08.06s-.02.11-.06.11l-.46.13-.06-.13"/>
      <path class="cls-1" d="m16.25,49.93l-.44.46c-.02-.34-.02-.36.36-.52l.08.06"/>
      <path class="cls-6" d="m26.79,25.85l1-.9-.04-.04c-.23-.06-.29.44-.59.17l-.48-.46c.04-.1.11-.19.17-.31l-.04-.08c-.15.04-.3.09-.44.15-.3.16-.68.09-.9-.17-.04-.09-.04-.18,0-.27.05-.07.12-.12.19-.17-.44-.36-.69.25-1.09.15l.1-.27-.21-.15-.9.19c.15-.57.57-.88,1.02-1.19.57.23.96-.27,1.46-.33.32-.05.64-.07.96-.08.11.01.21.08.27.17.17.29.36.36.67.25h.02c.38.15.79.19,1.13.38.08.06.17.11.27.13.11.04.33.04.33.08,0,.16-.03.31-.08.46q.17.33-.23.63c-.11.08-.18.21-.19.34.13.73-.34,1.07-.84,1.38-.48.28-.98.53-1.49.75-.1.04-.27-.04-.38-.1l-.54-.31c-.1-.06-.23-.1-.25-.17,0-.11.04-.21.11-.29.16-.13.34-.23.54-.29.13-.02.29.19.48.33m.92-1.49c.54-.1,1.53-.79,1.57-1.05-.44-.02-1.34.57-1.57,1.05m-.77-.44c.61-.16,1.17-.44,1.65-.84-.67.06-1.13.5-1.65.84m.79-.98l-.1-.11c-.31.31-.82.34-1.02.79l.1.1,1.02-.77m-.94-.02l-.1-.13-.79.48s.06.08.08.13l.8-.48"/>
      <path class="cls-6" d="m27.56,42.24c.05-.07.1-.15.13-.23.08-.22.15-.44.19-.67.02-.04-.11-.19-.17-.19s-.33-.08-.36-.29c-.01-.08-.07-.15-.15-.17-.33-.15-.38-.44-.4-.75.02-.18.12-.34.29-.42.63-.4,1.32-.34,1.99-.23.27.04.36.17.38.46.06.61-.38.94-.65,1.34-.02.06-.08.08-.13.1s-.38.15-.38.21c.01.22.09.43.23.59.34.36.96.29,1.34-.11.01.15,0,.3-.02.44,0,.04-.15.06-.25.08-.56.21-1.02-.06-1.44-.36l-.5.29-.1-.08"/>
      <path class="cls-6" d="m28.32,45.37c.02-.19.02-.34.04-.48.03-.1.07-.19.13-.27.19-.22.39-.42.61-.61.06-.04.29-.04.31.02.13.25.24.52.33.79l.69-.13c.21-.04.8.27.8.46-.02.14-.1.27-.21.36-.14.12-.3.22-.46.31-.34.21-1.09.15-1.4-.11l-.08-.06-.77-.27"/>
      <path class="cls-6" d="m35.41,49.12l-.92-.73c-.09-.09-.16-.18-.23-.29.47.22.87.57,1.15,1.02"/>
      <path class="cls-6" d="m26.62,41.63c.1.46.42.59.88.61-.25.11-.84-.02-.94-.21-.04-.12-.06-.25-.06-.38h.11"/>
      <path class="cls-1" d="m27.71,24.36c.23-.48,1.13-1.07,1.57-1.05-.04.27-1.03.96-1.57,1.05"/>
      <path class="cls-1" d="m26.94,23.92c.52-.34.98-.79,1.65-.84-.48.4-1.04.69-1.65.84"/>
      <path class="cls-1" d="m27.73,22.94l-1.02.77-.1-.1c.19-.44.71-.48,1.02-.79l.1.11"/>
      <path class="cls-1" d="m26.79,22.92l-.8.48c-.01-.05-.04-.1-.08-.13l.79-.48.1.13"/>
    </g>
  </g>
  <path class="cls-3" d="m6.01,20.05h-.11l-.34-.13-.4-.15h-.1c-.06.03-.08.09-.06.15,0,0,0,0,0,0,0,.04.04.06.06.08l.13.06.13.06.13.06.31.11c-.02.06-.1.23-.25.54s-.25.54-.33.71c-.4-.21-1.11-.54-2.11-.96.06-.17.14-.32.25-.46.04-.02.04-.06.04-.1,0-.04-.01-.07-.04-.1h-.17c-.15.17-.26.36-.33.57l-.06.17s-.04.09-.04.13c-.03.09-.07.18-.11.27-.02.03-.02.07,0,.1,0,.04.04.06.06.08.04.02.08.02.11,0l.06-.06c.05-.1.09-.2.11-.31l.04-.06,2.09.94-.11.38s0,.07.02.1c.02.04.04.06.08.06.03.02.07,0,.1-.02l.08-.08c.05-.21.12-.42.21-.61.09-.25.2-.49.33-.73.13-.29.23-.48.29-.63.02-.03.02-.07,0-.1,0-.04-.04-.06-.06-.08Z"/>
  <path class="cls-3" d="m7.57,17.12l-.25-.17-.19-.11-.15-.1-.1-.06h-.1s-.08.02-.08.06c-.03.02-.04.06-.02.1,0,.04.02.06.06.08l.1.06.15.1.17.1c.09.04.16.1.23.17h.04l-.11.17-.38.59-.21.33-.94-.56h0c.04-.06.07-.13.1-.19.02-.08.05-.15.1-.21l.08-.17.21.11.25.15h.1l.08-.06s.03-.08.02-.11c0-.03-.03-.06-.06-.08l-.34-.19-.4-.19-.29-.23-.1-.04s-.06.02-.1.06c-.03.02-.04.06-.02.1,0,.03.01.06.04.08.12.11.26.21.4.29l-.1.19-.11.21c-.02.06-.04.12-.08.17l-.77-.44.27-.46s.04-.11.1-.23c.03-.09.08-.17.13-.25,0-.03.02-.06.04-.08v-.06s.02-.04.04-.04h.06l.25.1.44.21s.06.04.1.02l.08-.06s.04-.06.02-.1l-.06-.1-.46-.21-.27-.11-.13-.04h-.13c-.06.04-.12.09-.15.15,0,.03,0,.05-.02.08l-.04.04-.15.29c-.06.13-.08.21-.1.21-.17.36-.38.71-.61,1.03-.02.03-.02.06-.02.1,0,.04.02.06.06.08s.06.04.1.04l.08-.06.25-.34.98.57.98.57-.27.42s-.02.08-.02.11l.06.08h.11s.06-.04.08-.08l.61-.98.36-.57.13-.19.04-.06h0s.02-.05.02-.08c0-.05-.02-.1-.06-.13l-.1-.08Z"/>
  <path class="cls-3" d="m9.04,14.26c-.27-.17-.5-.21-.73-.08-.09.04-.18.1-.25.17l-.25.21c-.13.09-.27.16-.42.21-.11.05-.24.06-.36.02-.1-.05-.17-.14-.21-.25-.06-.11-.08-.24-.08-.36.02-.12.06-.24.11-.34.06-.1.14-.18.25-.23l.21-.04h.33c.15.12.3.24.46.34.04.02.06.04.1.02s.06-.02.08-.06.04-.06.04-.1l-.06-.08c-.15-.09-.3-.18-.44-.29l-.21-.17-.23-.19h-.1s-.06.01-.08.04c-.03.02-.04.06-.04.1,0,.04.02.08.06.1l.06.06c-.1,0-.2.02-.29.06-.15.07-.27.17-.36.31-.08.15-.13.31-.13.48-.01.16.01.33.08.48.07.15.18.28.33.36.19.08.4.08.59,0,.17-.06.33-.14.48-.25l.27-.23.21-.13c.06-.04.12-.06.19-.06l.27.11c.18.12.27.33.23.54-.05.22-.16.42-.33.57-.1.06-.21.11-.33.13-.13.03-.26.03-.38.02h-.06l-.17-.13-.21-.17h-.1s-.06.01-.08.04c-.05.04-.06.11-.02.16.01.01.02.02.04.03l.21.17.21.17.46.33h.1s.06-.02.1-.06c.02-.03.03-.06.02-.1l-.06-.08-.17-.11c.21-.01.42-.08.59-.21.12-.09.22-.2.29-.33.07-.13.12-.27.13-.42.02-.15,0-.3-.06-.44-.05-.14-.15-.26-.29-.33Z"/>
  <path class="cls-3" d="m13.72,10.73s-.06,0-.1.02l-.38.27h-.04l-.13-.08-.21-.13-.23-.17-.29-.17-.29-.19-.67-.42-.25-.13-.1-.04h-.11c-.11,0-.2.07-.23.17-.04.08-.04.17-.02.25l.08.21.06.13c.04.13.11.31.21.54s.15.42.19.54c.05.15.1.3.13.46.05.17.1.34.17.5l-.29.21s-.04.06-.04.1c0,.03,0,.07.02.1l.1.04h.1l.98-.8s.04-.06.06-.1-.02-.06-.04-.1l-.1-.04h-.1l-.48.4-.13-.36c-.06-.23-.1-.34-.1-.38.26-.27.53-.52.82-.75l.71.42c-.17.14-.34.3-.5.46-.02.03-.04.06-.04.1,0,.04.02.06.04.1l.1.04s.08-.02.1-.06c.32-.32.67-.61,1.05-.86.04-.02.06-.05.06-.1,0-.03,0-.07-.02-.1l-.1-.06Zm-2.32.52c-.04-.13-.09-.26-.15-.38l-.19-.52c-.01-.05-.03-.1-.06-.15-.03-.05-.05-.11-.06-.17-.01-.04-.02-.08-.02-.11h.1l.23.13.65.4.19.13-.69.67Z"/>
  <path class="cls-3" d="m15.67,7.78c-.11-.5-.19-.8-.21-.92s-.02-.04-.02-.06c.09-.05.19-.09.29-.11.04,0,.08-.02.1-.06.02-.03.03-.06.02-.1,0-.03-.03-.06-.06-.08-.02-.03-.06-.04-.1-.02-.22.04-.42.13-.59.27l-.15.1-.1.08-.25.15s-.06.04-.06.08c-.02.03-.02.07,0,.1l.08.08h.1l.27-.15.11-.08.11-.1c.02.08.08.38.21.9s.15.69.19.92v.36s.02.05,0,.08c-.04-.05-.09-.09-.15-.11l-.13-.11-.33-.29-.33-.33-.42-.34c-.12-.1-.24-.21-.34-.33.13-.09.27-.15.42-.17.04,0,.06-.02.08-.06.03-.02.04-.06.02-.1,0-.03-.01-.06-.04-.08l-.1-.04c-.22.06-.43.16-.61.29l-.13.1-.11.08-.25.15s-.06.04-.06.08c-.02.03-.02.07,0,.1.01.03.04.05.08.06.04.02.08.02.11,0l.27-.17.1-.08.4.36.44.33.31.31.34.31.15.11.17.15h.04c.02.06.09.1.15.1.1,0,.18-.09.19-.19.02-.08.02-.17.02-.25,0-.04-.02-.15-.04-.36-.03-.32-.1-.63-.19-.94Z"/>
  <path class="cls-3" d="m20.12,7.28l-.1-.29-.08-.19c-.03-.05-.06-.11-.08-.17-.02-.04-.03-.08-.04-.11-.02-.02-.04-.06-.08-.06h-.1s-.06.04-.08.06c-.02.03-.02.07,0,.1,0,.04.02.08.04.11l.08.17.08.19.1.25v.04l-.19.08-.67.25-.36.13c-.1-.23-.23-.57-.42-1.02h.02l.17-.1.21-.11.17-.08.1.21c.03.09.07.18.11.27,0,.04.02.06.06.08.03.02.07.02.1,0,.03-.02.06-.04.08-.08.02-.03.02-.07,0-.1-.04-.12-.09-.25-.15-.36-.08-.17-.13-.31-.17-.42-.05-.12-.08-.24-.1-.36l-.06-.08h-.11s-.06.03-.08.06c-.02.03-.03.06-.02.1.04.16.09.32.15.48l-.19.08-.21.11-.17.1c-.15-.34-.27-.61-.34-.84l.48-.19.23-.13.25-.11.08-.04h.1l.06.06.13.23c.08.12.15.25.21.38.02.02.04.06.08.06h.1s.06-.04.08-.08c.02-.03.02-.07,0-.1-.06-.13-.13-.27-.23-.44l-.15-.27-.08-.1-.13-.08c-.07,0-.14,0-.21.04l-.06.04h-.06l-.29.15-.21.1c-.35.17-.72.31-1.09.42-.04,0-.06.02-.08.06-.02.03-.02.06-.02.1.02.03.04.06.08.08h.1l.4-.13c.1.23.23.57.44,1.03s.34.82.44,1.05l-.48.19s-.06.04-.08.06c-.02.04-.02.08,0,.11.02.02.04.06.08.06h.1l1.07-.36.65-.25.23-.08h.08s.06-.03.06-.06h0s.03-.09.02-.13c.01-.05,0-.11-.02-.15Z"/>
  <path class="cls-3" d="m23.36,4.01l.1-.04s.03-.05.04-.08c.02-.03,0-.07-.02-.1-.01-.03-.04-.05-.08-.06-.22-.02-.44,0-.65.08l-.17.06-.13.04c-.09.04-.19.06-.29.08l-.08.06s-.02.06-.02.1l.06.1h.1l.31-.08.11-.04.11-.04c.11.44.25,1.05.38,1.84.01.02.02.04.02.06,0,.03,0,.07.02.1,0,.04.02.08.02.11-.15-.14-.29-.29-.4-.46l-.31-.38-.25-.27-.33-.33-.25-.27s-.02-.05-.02-.08c-.02-.08-.07-.14-.13-.19-.02-.03-.05-.04-.08-.04h-.17l-.19.06h-.11l-.15.04-.17.06-.17.04-.1.06s-.02.06-.02.1c0,.04.02.08.06.1h.1l.19-.06h.1l.11-.04h.11c.25,1.02.4,1.76.48,2.2l-.46.17s-.06.04-.08.08c0,.03,0,.07.02.1l.08.08h.1c.1-.06.21-.1.33-.11l.44-.1.38-.08s.06-.03.08-.06c.02-.03.03-.06.02-.1l-.06-.08h-.1l-.48.1c-.1-.46-.25-1.21-.5-2.24h.11c.04.08.06.15.1.17l.27.27.29.33.25.29.25.31.31.38.33.29h0l.04.04c.03.07.11.09.18.06.01,0,.02-.01.03-.02l.06-.08s.02-.02.02-.04v-.1s-.02-.11-.02-.19l-.04-.11s0-.08-.02-.11v-.06c-.15-.79-.27-1.42-.4-1.88.12-.03.24-.04.36-.02Z"/>
  <path class="cls-3" d="m27.19,3.49v-.04s0-.06-.04-.08l-.08-.04c-.23-.04-.46-.04-.69-.02l-.8.1-.67.08h-.06s-.06.02-.08.06-.04.06-.04.1.02.13.06.25c.04.11.02.21.04.31s.02.17.04.25,0,.08.04.1l.1.04s.06-.02.08-.06.04-.06.04-.1c-.02-.23-.05-.46-.1-.69l.88-.11c.1,1.09.13,1.86.15,2.32l-.44.1s-.06.04-.08.08c-.02.03-.02.07,0,.1,0,.04.02.06.06.08h.1l.34-.08h.82l.1-.04s.04-.06.04-.1-.02-.08-.06-.1c-.02-.03-.06-.04-.1-.02h-.52c-.02-.46-.08-1.25-.17-2.34.26-.03.52-.04.79-.02.02.12.03.24.04.36.02.13.03.25.04.38.02.04.02.06.06.08s.06.04.1.04l.08-.04s.04-.06.04-.1c0-.1-.02-.23-.04-.42s-.06-.34-.06-.42Z"/>
  <path class="cls-3" d="m31.25,3.45c-.2-.08-.42-.11-.63-.1h-.71s-.04.06-.04.1c0,.03,0,.07.02.1l.1.04h.56v.48c-.02.27-.02.5-.04.67,0,.21-.03.42-.08.63,0,.13-.04.26-.11.36-.07.08-.17.15-.27.19-.12.04-.25.06-.38.06-.13,0-.26-.02-.38-.08-.1-.04-.18-.12-.23-.21-.08-.22-.11-.46-.08-.69.02-.1.04-.23.06-.38.03-.13.05-.25.06-.38.02-.04.02-.29.06-.73h0c.16,0,.33.02.48.08h.1s.06-.04.08-.06c.02-.03.02-.07,0-.1l-.06-.08c-.21-.08-.43-.12-.65-.11h-.61l-.1.04s-.04.06-.04.1c0,.04.01.07.04.1l.08.04h.42c-.02.42-.04.65-.04.71-.03.12-.05.24-.06.36-.03.13-.05.27-.06.4-.04.28-.01.56.1.82.07.15.19.27.34.33.15.08.33.12.5.11.16,0,.33-.03.48-.1.15-.05.28-.14.38-.27.1-.14.16-.29.17-.46.02-.17.06-.4.08-.67s.02-.42.02-.69.02-.42.02-.44c.12,0,.24.02.34.08h.1s.06-.04.08-.08c.02-.03.02-.07,0-.1l-.08-.08Z"/>
  <path class="cls-3" d="m35.03,5.92s-.06,0-.1.02-.06.04-.06.08c0,.04-.02.08-.02.11-.01.05-.02.09-.04.13,0,.04-.02.08-.02.13l-.06.11c-.01.06-.05.11-.1.13-.04.02-.08.02-.15-.02l-.1-.04-.04-.08c-.02-.07-.02-.14,0-.21,0-.05.02-.09.04-.13l.04-.15c.09-.23.06-.5-.08-.71l.31-.1c.17-.11.28-.28.31-.48v-.25c0-.09-.02-.19-.06-.27-.05-.05-.11-.1-.17-.13l-.25-.11c-.22-.09-.44-.16-.67-.21l-.67-.13c-.15-.04-.3-.07-.46-.08l-.1.04s-.06.05-.06.1c0,.04.02.06.04.1l.1.04c.16,0,.32.03.48.08-.23,1.03-.4,1.78-.52,2.22-.16-.04-.33-.05-.5-.04l-.1.04s-.03.06-.02.1c0,.04.01.07.04.1h.1c.12,0,.23,0,.34.04l.42.1.38.1s.07,0,.1-.02c.04-.02.06-.04.06-.08s0-.06-.02-.1-.04-.06-.08-.06l-.48-.11c.1-.33.18-.67.25-1.02l.17.04.25.06h.23l.25.04.04.04c.07.08.12.17.15.27.01.1,0,.21-.04.31l-.04.15-.06.15c-.03.13-.01.26.04.38.02.07.06.13.11.17l.15.08c.12.06.26.06.38,0,.09-.06.17-.15.21-.25l.06-.15c0-.05.01-.11.04-.15,0-.04.02-.08.02-.15.01-.03.02-.06.02-.1.02-.03,0-.07-.02-.1-.02,0-.04-.02-.08-.02Zm-.88-.86l-.5-.06-.44-.08.19-1,.36.1c.22.04.43.1.63.19l.21.08.08.06s.03.1.04.15c0,.06,0,.13-.02.19-.01.12-.07.22-.17.29-.12.06-.25.08-.38.08Z"/>
  <path class="cls-3" d="m38.67,5.17h-.11l-.31-.1-.23-.06c-.38-.11-.74-.26-1.09-.44-.03-.02-.07-.02-.1,0-.03.02-.06.04-.08.08-.02.03-.02.07,0,.1,0,.04.02.06.06.08l.38.17-.36,1.05c-.17.48-.31.84-.38,1.09l-.48-.19s-.07-.02-.1,0c-.03.02-.06.04-.08.08v.1s.06.06.08.08.44.15,1.07.42l.67.25.19.08h.1s.05.02.08,0c.04,0,.08-.04.11-.1l.06-.1.11-.29.08-.19.06-.17s.03-.08.04-.11c.02-.03.02-.07,0-.1-.02-.04-.04-.06-.08-.06h-.1s-.06.04-.08.08l-.04.1-.06.17-.06.19-.11.27s-.02.02-.02.04l-.21-.1-.65-.25-.36-.15c.1-.23.21-.57.38-1.03h0l.21.04.21.06.19.06c-.03.07-.06.14-.08.21l-.1.29s-.02.07,0,.1c.02.04.04.06.08.06.03.02.07.02.1,0,.03-.02.06-.04.08-.08l.11-.36c.05-.15.11-.3.17-.44.04-.11.09-.22.15-.33.01-.03.02-.06.02-.1l-.06-.1h-.11s-.06.03-.08.06l-.21.44-.19-.06-.23-.06-.19-.04c.11-.36.23-.63.31-.86l.5.17.25.06.27.08.08.04h.1s0,.04,0,.06c0,.09-.02.18-.04.27l-.13.48s-.02.07,0,.1c.02.04.04.06.08.06.03.02.07.02.1,0,.03-.02.06-.04.08-.08.04-.13.08-.31.13-.48.01-.1.03-.21.06-.31v-.11c0-.05-.01-.11-.04-.15-.06-.03-.13-.04-.19-.04Z"/>
  <path class="cls-3" d="m42.04,6.63s-.07-.02-.1,0c-.04,0-.06.04-.08.06l-.04.08c-.01-.1-.05-.19-.11-.27-.1-.14-.24-.24-.4-.29-.15-.06-.32-.08-.48-.06-.17.02-.32.08-.46.17-.14.09-.25.22-.29.38-.05.2-.02.42.1.59.1.15.22.29.34.42l.27.21c.06.05.12.11.17.17.05.06.08.12.1.19,0,.1-.03.2-.08.29-.07.19-.26.32-.46.31-.12.02-.23,0-.34-.04-.1-.04-.2-.09-.29-.15-.08-.08-.15-.18-.19-.29-.06-.12-.09-.25-.1-.38v-.06l.1-.19c.05-.07.1-.15.13-.23.02-.04.02-.08,0-.11,0-.03-.03-.06-.06-.08h-.1l-.08.06-.13.25-.13.25c-.1.19-.19.36-.25.52-.02.03-.02.07,0,.1.02.03.04.06.08.08h.1s.06-.04.08-.08c.03-.06.05-.13.08-.19.05.21.17.41.33.56.11.1.24.17.38.21.14.04.28.06.42.06.15-.01.31-.06.44-.13.12-.08.22-.2.27-.34.12-.23.1-.52-.06-.73-.06-.08-.14-.16-.23-.21l-.25-.21-.29-.36c-.08-.1-.11-.24-.08-.36.03-.11.1-.21.19-.27.1-.07.22-.11.34-.11.12-.02.25-.02.36.02.11.04.2.12.27.21.04.06.07.14.08.21v.27h0v.06c-.1.19-.19.36-.25.52-.02.03-.02.07,0,.1.02.03.04.06.08.08h.1l.08-.08.23-.5.13-.23.13-.25s.02-.08,0-.11c0-.04-.02-.06-.06-.08Z"/>
  <path class="cls-3" d="m46.03,11.58c.12-.16.21-.33.29-.52.06-.17.1-.35.11-.54,0-.04,0-.08.02-.11v-.23s-.02-.1-.04-.13c-.06-.14-.16-.26-.27-.36-.14-.15-.29-.29-.44-.42l-.29-.23h0l-.06-.04c-.16-.13-.32-.24-.5-.34h-.1s-.08.04-.08.08-.04.06-.02.1c.02.03.04.06.08.08l.36.25-.17.19-.15.19-.13.17-.31.36-.4.48-.29.38c-.1-.1-.21-.19-.33-.27-.02-.03-.06-.04-.1-.02-.03,0-.06.01-.08.04-.02.04-.04.08-.02.1,0,.04.01.07.04.1.14.09.27.2.38.33.14.13.29.25.44.36.36.31.69.48,1,.5.2.02.4-.02.57-.11.18-.09.33-.21.46-.36Zm-1.02.21c-.32-.05-.62-.2-.86-.42l-.31-.27.29-.4c.13-.17.26-.33.4-.48.1-.14.21-.26.33-.38l.15-.21.13-.19.15-.15.23.17.42.4c.08.09.15.18.21.29.02.02.02.05.02.08v.29c-.02.16-.06.31-.11.46-.06.16-.14.31-.25.44-.18.27-.49.41-.8.38Z"/>
  <path class="cls-3" d="m49.37,13.11l.08-.1s.02-.1.02-.15c-.02-.07-.06-.12-.11-.17l-.06-.06-.04-.04-.23-.21-.17-.15c-.28-.28-.54-.58-.79-.9-.02-.02-.05-.04-.08-.04-.03-.02-.07,0-.1.02-.04.02-.04.06-.06.1,0,.03.02.07.04.1l.25.33-.82.77-.82.79-.33-.38-.1-.04-.1.04s-.04.06-.04.1c0,.03,0,.07.02.1.06.06.33.34.77.86l.48.52.13.17.04.04h.02l.08.04s.1,0,.13-.04l.11-.06.23-.21.15-.13.13-.11c.04-.06.08-.08.08-.1s.04-.04.06-.08c0-.04-.01-.07-.04-.1-.02-.04-.06-.04-.1-.04h-.1s-.04.04-.08.08l-.13.13-.15.13-.21.19h-.04l-.13-.17-.46-.44-.27-.31.8-.75h0c.06.02.1.08.17.13l.17.13.13.13-.17.17-.21.19s-.04.06-.04.1c0,.04,0,.08.04.1.02.02.05.04.08.04.04,0,.08,0,.1-.04l.29-.27.34-.33.29-.21s.06-.04.06-.08c.02-.03,0-.07-.02-.1-.02-.03-.04-.06-.08-.08h-.1l-.38.31-.15-.15-.19-.15-.13-.11.65-.63.36.4.19.15.21.19s.04.04.06.06.04.06.06.06h.02s-.02.04-.04.08l-.17.21c-.1.12-.21.24-.33.34-.02.04-.04.06-.04.1,0,.04.01.07.04.1l.1.04.1-.04.33-.36c.07-.05.14-.12.19-.19Z"/>
  <path class="cls-3" d="m51.23,18.5l.06-.08s0-.07-.02-.1c-.01-.03-.04-.05-.08-.06h-.11l-.11.08-.11.08-.13.08-.27.17-.29-.5-.38-.67c.4-.21,1.07-.59,1.99-1.17.11.14.19.3.23.48,0,.04.02.06.06.08.02.03.06.04.1.02.03,0,.06-.01.08-.04.02-.04.04-.08.02-.1-.04-.22-.13-.43-.27-.61l-.1-.13-.1-.11-.15-.23-.08-.08h-.1s-.06.04-.06.08c-.02.03-.02.07,0,.1.05.1.11.19.17.27l.06.06-2.01,1.17-.23-.31-.1-.04h-.1s-.04.06-.04.1c0,.03,0,.07.02.1.14.17.27.35.38.54.15.22.29.45.4.69l.34.59.08.08h.1s.06-.05.06-.1l.31-.19.38-.23Z"/>
  <path class="cls-3" d="m52.62,21.72l.1-.04s.06-.04.08-.08v-.1s-.04-.06-.08-.08h-.1l-.11.06-.15.08-.19.08-.27.1h-.04l-.08-.21-.27-.63-.13-.36,1-.44h0l.11.17.11.19.08.17-.21.1-.27.11s-.06.04-.06.08c-.02.03-.02.07,0,.1,0,.04.04.06.06.08.04.02.08.02.11,0l.34-.17.44-.17c.11-.06.22-.09.34-.11l.08-.06s.02-.06.02-.1c0-.04-.02-.08-.06-.1h-.1l-.48.17c-.02-.07-.05-.13-.08-.19l-.13-.21-.1-.17.82-.36c.07.16.14.33.23.48l.11.23c.05.08.1.16.13.25,0,.02.02.04.04.08l.04.06v.04s-.02.04-.04.04h0c-.07.06-.16.12-.25.15l-.42.23s-.06.04-.06.08c-.02.03-.02.07,0,.1l.08.08h.1l.44-.23c.09-.04.18-.1.25-.17.04-.01.08-.04.11-.08.03-.03.05-.07.06-.11.01-.07,0-.15-.04-.21l-.04-.08s-.02-.02-.02-.04c-.04-.1-.1-.2-.15-.29l-.11-.21c-.18-.35-.32-.72-.44-1.09,0-.04-.02-.06-.06-.08h-.1l-.08.06s-.02.08-.02.11l.15.38-1.03.46-1.05.48c-.1-.27-.17-.44-.19-.48,0-.03-.03-.06-.06-.06h-.11s-.06.03-.06.06h0s-.02.07,0,.1c.02.08.17.44.44,1.07l.25.65.1.21v.06h0l.06.08h.15l.11-.04.29-.1.19-.1.19-.06Z"/>
  <path class="cls-3" d="m53.99,19.7c.22.13.44.27.63.44.02.03.06.04.1.04.04,0,.08,0,.1-.04.05-.04.05-.11.01-.16,0,0,0,0-.01-.01-.21-.19-.44-.36-.69-.5h-.1l-.08.06s-.02.08-.02.11l.06.06Z"/>
  <path class="cls-3" d="m55.29,23.61c-.01-.17-.07-.33-.15-.48-.08-.16-.21-.28-.36-.36-.29-.13-.61-.17-.92-.11-.31.02-.62.1-.9.25-.25.15-.44.37-.56.63-.12.26-.11.57.02.82.03.12.09.22.17.31.08.08.17.14.27.17.54.23,1.19.13,1.95-.29.04-.01.06-.03.06-.06.15-.09.27-.23.34-.38.06-.16.09-.33.08-.5Zm-.33.4c-.04.11-.13.2-.23.25l-.06.06c-.69.38-1.26.48-1.72.29-.07-.03-.13-.08-.17-.13-.06-.06-.1-.13-.13-.21-.1-.2-.1-.43,0-.63.08-.22.25-.4.46-.5.24-.13.5-.21.77-.23.36-.02.61,0,.77.1.12.06.21.15.27.27.07.11.12.23.11.36.02.13,0,.26-.06.38Z"/>
</svg>